Coordinates
version=1
nRows=23
nColumns=34
inDegrees=no

Units are S.I. units (second, meters, Newtons, ...)
If the header above contains a line with 'inDegrees', this indicates whether rotational values are in degrees (yes) or radians (no).

endheader
time	pelvis_tilt	pelvis_list	pelvis_rotation	pelvis_tx	pelvis_ty	pelvis_tz	hip_flexion_r	hip_adduction_r	hip_rotation_r	knee_angle_r	ankle_angle_r	subtalar_angle_r	mtp_angle_r	hip_flexion_l	hip_adduction_l	hip_rotation_l	knee_angle_l	ankle_angle_l	subtalar_angle_l	mtp_angle_l	lumbar_extension	lumbar_bending	lumbar_rotation	arm_flex_r	arm_add_r	arm_rot_r	elbow_flex_r	pro_sup_r	arm_flex_l	arm_add_l	arm_rot_l	elbow_flex_l	pro_sup_l
1.3	-0.190735	0.102681	0.0462783	-0.592165	1.26511	-0.558519	0.621389	-0.215187	-0.313139	0.217743	-0.517787	0.222418	0	0.628607	-0.0462066	-0.22109	0.358886	-0.292076	0.103062	0	-0.242004	-0.076839	-0.150848	1.44007	-1.22596	1.25886	1.81616	1.62119	1.19096	-1.28384	0.671402	1.36323	2.01198
1.31	-0.188473	0.102282	0.0436446	-0.579872	1.24962	-0.557919	0.623752	-0.214025	-0.317655	0.205611	-0.531981	0.236153	0	0.627572	-0.0491946	-0.225534	0.333731	-0.315059	0.106698	0	-0.243081	-0.074837	-0.156589	1.49081	-1.26955	1.3427	1.8467	1.59696	1.09994	-1.3561	0.62511	1.36604	1.99869
1.32	-0.186	0.101687	0.0406022	-0.56722	1.23311	-0.557438	0.625247	-0.213342	-0.324524	0.196073	-0.544635	0.249374	0	0.625959	-0.052181	-0.22848	0.311703	-0.342096	0.110025	0	-0.24508	-0.0715489	-0.168719	1.56149	-1.307	1.44449	1.87705	1.57394	0.834139	-1.43712	0.405951	1.38072	1.97548
1.33	-0.184127	0.100326	0.0375506	-0.554132	1.21559	-0.557083	0.626524	-0.212643	-0.332017	0.189221	-0.55478	0.259427	0	0.625033	-0.0558967	-0.230602	0.294154	-0.367368	0.114692	0	-0.24775	-0.066525	-0.189509	1.64702	-1.33549	1.55806	1.90611	1.55922	-0.172304	-1.48429	-0.555163	1.40804	1.95078
1.34	-0.183609	0.0980847	0.0350283	-0.540544	1.19711	-0.556945	0.627303	-0.211673	-0.33831	0.183574	-0.561761	0.263792	0	0.625777	-0.0600313	-0.231712	0.281755	-0.385131	0.121332	0	-0.249784	-0.0601825	-0.214821	1.73221	-1.36119	1.6688	1.93682	1.55592	-1.02774	-1.40469	-1.37061	1.44277	1.92606
1.35	-0.183304	0.0962658	0.0326323	-0.526649	1.17776	-0.556942	0.626469	-0.211254	-0.341678	0.178516	-0.567101	0.260579	0	0.627486	-0.0634891	-0.231787	0.275058	-0.394218	0.129659	0	-0.251578	-0.0550643	-0.226626	1.84007	-1.4115	1.80118	1.97726	1.56528	-1.22207	-1.30311	-1.53348	1.47082	1.90866
1.36	-0.181392	0.0958408	0.029822	-0.512748	1.15768	-0.556863	0.62453	-0.212706	-0.341227	0.177667	-0.572871	0.249349	0	0.629239	-0.0659375	-0.230794	0.27486	-0.398899	0.139353	0	-0.254961	-0.0526522	-0.216087	2.18798	-1.49545	2.17135	2.02501	1.56532	-1.27204	-1.22837	-1.55964	1.48803	1.89761
1.37	-0.177349	0.0965208	0.0260388	-0.49899	1.13688	-0.556471	0.623378	-0.215544	-0.332734	0.185084	-0.581297	0.228834	0	0.631122	-0.0684971	-0.229872	0.281402	-0.405068	0.150146	0	-0.260274	-0.0522742	-0.18379	-2.09109	-1.49366	-2.08734	2.07607	1.51388	-1.27241	-1.18409	-1.5401	1.49595	1.88054
1.38	-0.17183	0.0974173	0.0220132	-0.485396	1.1153	-0.555823	0.623965	-0.219107	-0.317495	0.201429	-0.593497	0.203828	0	0.63406	-0.0714805	-0.227817	0.294262	-0.415464	0.160327	0	-0.266013	-0.0526288	-0.149332	-1.707	-1.37143	-1.67934	2.11932	1.45046	-1.26285	-1.14302	-1.51171	1.4993	1.86686
1.39	-0.165059	0.0975775	0.0180492	-0.472032	1.0929	-0.555152	0.626273	-0.221924	-0.294077	0.226125	-0.606272	0.177642	0	0.638308	-0.075085	-0.223556	0.312935	-0.427352	0.171567	0	-0.271842	-0.0524184	-0.122591	-1.604	-1.25821	-1.54415	2.14947	1.45191	-1.25679	-1.09158	-1.48491	1.50029	1.85168
1.4	-0.156987	0.0970954	0.013908	-0.458957	1.06965	-0.55461	0.631079	-0.222759	-0.255071	0.259873	-0.614175	0.154562	0	0.643783	-0.0788426	-0.217286	0.337266	-0.435944	0.1854	0	-0.278311	-0.0514747	-0.101967	-1.54376	-1.15706	-1.4486	2.16462	1.49761	-1.25236	-1.03254	-1.45537	1.49976	1.82446
1.41	-0.147868	0.0972024	0.0104906	-0.446063	1.04537	-0.554217	0.63793	-0.221764	-0.201048	0.29723	-0.625381	0.145711	0	0.651115	-0.0813907	-0.210264	0.36862	-0.435014	0.202663	0	-0.285235	-0.0511934	-0.0877403	-1.49483	-1.06753	-1.3678	2.16504	1.52441	-1.24961	-0.967882	-1.42317	1.49751	1.80181
1.42	-0.13825	0.0959542	0.00681474	-0.433284	1.02005	-0.553779	0.644963	-0.215008	-0.138974	0.33005	-0.648579	0.14618	0	0.660857	-0.0860837	-0.205713	0.405645	-0.427349	0.225598	0	-0.292111	-0.0494217	-0.0766785	-1.44986	-0.987767	-1.29341	2.15486	1.53509	-1.24466	-0.901147	-1.38409	1.49179	1.78735
1.43	-0.1297	0.0878672	-0.00125148	-0.421078	0.994056	-0.553155	0.656201	-0.198177	-0.0834967	0.375373	-0.629686	0.14767	0	0.673943	-0.099751	-0.204985	0.440906	-0.433534	0.245519	0	-0.298665	-0.0404305	-0.0629617	-1.40557	-0.919626	-1.22246	2.13532	1.55353	-1.23187	-0.833036	-1.33337	1.48085	1.77539
1.44	-0.125102	0.0757603	-0.0125654	-0.409971	0.967542	-0.552592	0.681528	-0.179143	-0.0439134	0.470475	-0.464347	0.162969	0	0.694585	-0.118167	-0.205853	0.478288	-0.44306	0.245762	0	-0.303161	-0.0275623	-0.0474517	-1.35565	-0.863245	-1.15311	2.1049	1.58365	-1.21267	-0.76567	-1.27371	1.46543	1.76103
1.45	-0.125457	0.071762	-0.0167613	-0.399594	0.940076	-0.552642	0.715847	-0.173908	-0.0146186	0.60466	-0.157717	0.192897	0	0.728207	-0.126011	-0.20411	0.545819	-0.375251	0.22696	0	-0.302748	-0.02254	-0.0416992	-1.29592	-0.813387	-1.08226	2.06602	1.61472	-1.19394	-0.704485	-1.21211	1.44723	1.74542
1.46	-0.130729	0.0703668	-0.01572	-0.389774	0.912026	-0.553281	0.748575	-0.171404	0.0102002	0.723669	0.128731	0.193626	0	0.775384	-0.130525	-0.195707	0.660032	-0.17597	0.197719	0	-0.296848	-0.0182312	-0.0413698	-1.22997	-0.766869	-1.01544	2.02251	1.63813	-1.16832	-0.649963	-1.1452	1.42572	1.73242
1.47	-0.144195	0.0605563	-0.0221934	-0.381268	0.884391	-0.554179	0.794109	-0.158793	0.0228377	0.822867	0.31382	0.166637	0	0.830661	-0.145022	-0.179175	0.786576	0.0644971	0.145381	0	-0.284683	-0.00387232	-0.0320454	-1.15794	-0.726332	-0.957858	1.97186	1.68073	-1.12618	-0.596478	-1.06859	1.40215	1.70312
1.48	-0.172628	0.0450196	-0.0392595	-0.375445	0.858056	-0.555262	0.869797	-0.142613	0.0232383	0.919505	0.404245	0.132683	0	0.899987	-0.166243	-0.153999	0.893062	0.227988	0.0605525	0	-0.263032	0.0169283	-0.0123946	-1.07381	-0.692955	-0.901825	1.91792	1.68237	-1.06637	-0.540633	-0.990341	1.37024	1.69736
1.49	-0.211852	0.0310501	-0.0570743	-0.372334	0.833639	-0.556536	0.967901	-0.129551	0.0251951	1.01863	0.425728	0.0840135	0	0.985832	-0.185486	-0.119317	0.98399	0.29656	-0.0403229	0	-0.237185	0.0373317	0.00700961	-0.975881	-0.662006	-0.844995	1.85825	1.68385	-0.995505	-0.486095	-0.915635	1.33282	1.69077
1.5	-0.242049	0.0212136	-0.0644886	-0.370302	0.812051	-0.558148	1.05643	-0.120642	0.0405582	1.11417	0.412776	0.00405827	0	1.06909	-0.194118	-0.0764918	1.07072	0.302757	-0.144872	0	-0.226941	0.0538301	0.0155652	-0.867887	-0.629528	-0.78752	1.79523	1.68605	-0.919035	-0.437531	-0.847267	1.29301	1.68398
1.51	-0.248151	0.0155399	-0.0633965	-0.367743	0.793894	-0.559988	1.11177	-0.119063	0.0638018	1.20051	0.397272	-0.0850558	0	1.12709	-0.19267	-0.0364843	1.15425	0.284217	-0.248641	0	-0.247344	0.0634763	0.0147864	-0.753916	-0.596332	-0.729078	1.72991	1.68693	-0.839913	-0.395908	-0.784681	1.25489	1.68445
1.52	-0.237569	0.0143981	-0.0653084	-0.364687	0.778461	-0.561332	1.14086	-0.120614	0.0882722	1.27353	0.389679	-0.159036	0	1.1591	-0.191298	-0.00808944	1.22903	0.265422	-0.347623	0	-0.289208	0.0641111	0.0150409	-0.6376	-0.564183	-0.668429	1.66342	1.68909	-0.760095	-0.361193	-0.725416	1.22034	1.69631
